<svg width="72" height="72" viewBox="0 0 72 72" fill="none" xmlns="http://www.w3.org/2000/svg">
<path d="M36 65.25C19.871 65.25 6.75 52.1279 6.75 36C6.75 19.8721 19.871 6.75 36 6.75C52.129 6.75 65.25 19.8721 65.25 36C65.25 52.1279 52.129 65.25 36 65.25ZM36 11.25C22.3528 11.25 11.25 22.3528 11.25 36C11.25 49.6472 22.3528 60.75 36 60.75C49.6472 60.75 60.75 49.6472 60.75 36C60.75 22.3528 49.6472 11.25 36 11.25Z" fill="#EF5350"/>
<path d="M55.092 57.342C54.5164 57.342 53.9407 57.1223 53.5012 56.6829L15.3171 18.4988C14.4382 17.6199 14.4382 16.196 15.3171 15.3171C16.196 14.4382 17.6199 14.4382 18.4988 15.3171L56.6829 53.5012C57.5618 54.3801 57.5618 55.804 56.6829 56.6829C56.2434 57.1223 55.6677 57.342 55.092 57.342Z" fill="#EF5350"/>
</svg>
