<svg width="72" height="72" viewBox="0 0 72 72" fill="none" xmlns="http://www.w3.org/2000/svg">
<path d="M59.8975 72H12.1025C7.91016 72 4.5 68.5898 4.5 64.3975V34.6025C4.5 30.4102 7.91016 27 12.1025 27H59.8975C64.0898 27 67.5 30.4102 67.5 34.6025V64.3975C67.5 68.5898 64.0898 72 59.8975 72ZM12.1025 31.5C10.392 31.5 9 32.8909 9 34.6025V64.3975C9 66.1091 10.392 67.5 12.1025 67.5H59.8975C61.608 67.5 63 66.1091 63 64.3975V34.6025C63 32.8909 61.608 31.5 59.8975 31.5H12.1025Z" fill="#667177"/>
<path d="M49.5 31.5H22.5C21.2574 31.5 20.25 30.4937 20.25 29.25V15.75C20.25 7.06641 27.3153 0 36 0C44.6847 0 51.75 7.06641 51.75 15.75V29.25C51.75 30.4937 50.7426 31.5 49.5 31.5ZM24.75 27H47.25V15.75C47.25 9.54712 42.2029 4.5 36 4.5C29.7971 4.5 24.75 9.54712 24.75 15.75V27Z" fill="#667177"/>
<path d="M36 52.5674C32.0526 52.5674 28.8413 49.355 28.8413 45.4087C28.8413 41.4624 32.0526 38.25 36 38.25C39.9474 38.25 43.1587 41.4624 43.1587 45.4087C43.1587 49.355 39.9474 52.5674 36 52.5674ZM36 42.75C34.5344 42.75 33.3413 43.9431 33.3413 45.4087C33.3413 46.8743 34.5344 48.0674 36 48.0674C37.4656 48.0674 38.6587 46.8743 38.6587 45.4087C38.6587 43.9431 37.4656 42.75 36 42.75Z" fill="#667177"/>
<path d="M36 60.75C34.7574 60.75 33.75 59.7437 33.75 58.5V50.3174C33.75 49.0737 34.7574 48.0674 36 48.0674C37.2426 48.0674 38.25 49.0737 38.25 50.3174V58.5C38.25 59.7437 37.2426 60.75 36 60.75Z" fill="#667177"/>
</svg>
