<svg width="72" height="72" viewBox="0 0 72 72" fill="none" xmlns="http://www.w3.org/2000/svg">
<path d="M56.25 58.5H49.5C48.2563 58.5 47.25 57.4937 47.25 56.25C47.25 55.0063 48.2563 54 49.5 54H56.25C62.4529 54 67.5 48.9529 67.5 42.75C67.5 36.5471 62.4529 31.5 56.25 31.5H54C52.7563 31.5 51.75 30.4937 51.75 29.25C51.75 20.5664 44.6836 13.5 36 13.5C27.3164 13.5 20.25 20.5664 20.25 29.25C20.25 30.4937 19.2437 31.5 18 31.5H15.75C9.54712 31.5 4.5 36.5471 4.5 42.75C4.5 48.9529 9.54712 54 15.75 54H22.5C23.7437 54 24.75 55.0063 24.75 56.25C24.75 57.4937 23.7437 58.5 22.5 58.5H15.75C7.06641 58.5 0 51.4336 0 42.75C0 34.0664 7.06641 27 15.75 27H15.8752C16.998 16.8882 25.5938 9 36 9C46.4062 9 55.002 16.8882 56.1248 27H56.25C64.9336 27 72 34.0664 72 42.75C72 51.4336 64.9336 58.5 56.25 58.5Z" fill="#FF8C00"/>
<path d="M42.75 45C42.1743 45 41.5986 44.7803 41.1592 44.3408L36 39.1816L30.8408 44.3408C29.9619 45.2197 28.5381 45.2197 27.6592 44.3408C26.7803 43.4619 26.7803 42.0381 27.6592 41.1592L34.4092 34.4092C35.2881 33.5303 36.7119 33.5303 37.5908 34.4092L44.3408 41.1592C45.2197 42.0381 45.2197 43.4619 44.3408 44.3408C43.9014 44.7803 43.3257 45 42.75 45Z" fill="#FF8C00"/>
<path d="M36 63C34.7563 63 33.75 61.9937 33.75 60.75V36C33.75 34.7563 34.7563 33.75 36 33.75C37.2437 33.75 38.25 34.7563 38.25 36V60.75C38.25 61.9937 37.2437 63 36 63Z" fill="#FF8C00"/>
</svg>
